<svg id="Layer_1" height="300" viewBox="0 0 128 128" width="300" xmlns="http://www.w3.org/2000/svg" data-name="Layer 1"><circle cx="80.188" cy="57.241" fill="#ffce12" r="23.289"/><path d="m80.188 38.371q-.519 0-1.031.027a1.75 1.75 0 0 0 .092 3.5h.1q.418-.023.843-.022a1.75 1.75 0 0 0 0-3.5z" fill="#fff"/><path d="m72.8 39.875a18.851 18.851 0 0 0 -11.481 17.366 1.75 1.75 0 0 0 3.5 0 15.356 15.356 0 0 1 9.35-14.146 1.75 1.75 0 1 0 -1.372-3.22z" fill="#fff"/><path d="m73.064 62.169a18.053 18.053 0 0 0 -2.492.192 22.7 22.7 0 0 0 -44.834 5.08c0 .735.038 1.461.106 2.179-.426-.038-.855-.065-1.291-.065a14.3 14.3 0 0 0 0 28.607h48.51a18 18 0 1 0 0-35.993z" fill="#63afff"/><path d="m46.625 51.507a1.751 1.751 0 0 0 -2.072-1.354q-.476.1-.932.218a1.75 1.75 0 1 0 .879 3.389q.379-.1.776-.181a1.75 1.75 0 0 0 1.349-2.072z" fill="#fff"/><path d="m38.481 52.6c-5.6 3.633-7.6 9.934-7.6 14.619a1.75 1.75 0 0 0 3.5 0c0-3.766 1.577-8.812 6-11.682a1.75 1.75 0 1 0 -1.9-2.937z" fill="#fff"/><path d="m63.706 85.275a11.559 11.559 0 0 1 1.6.123 14.538 14.538 0 0 1 28.707 3.252c0 .471-.024.936-.068 1.395.273-.024.548-.042.827-.042a9.159 9.159 0 0 1 0 18.317h-31.066a11.523 11.523 0 1 1 0-23.046z" fill="#fff"/><g fill="#242c43"><path d="m80.188 28.769a1.75 1.75 0 0 0 1.75-1.75v-7.34a1.75 1.75 0 0 0 -3.5 0v7.339a1.75 1.75 0 0 0 1.75 1.751z"/><path d="m105.511 29.443-5.19 5.19a1.75 1.75 0 1 0 2.475 2.475l5.19-5.19a1.75 1.75 0 0 0 -2.475-2.475z"/><path d="m117.75 55.491h-7.34a1.75 1.75 0 0 0 0 3.5h7.34a1.75 1.75 0 0 0 0-3.5z"/><path d="m102.8 77.374a1.75 1.75 0 0 0 -2.475 2.475l5.19 5.19a1.75 1.75 0 1 0 2.475-2.475z"/><path d="m57.581 37.108a1.75 1.75 0 0 0 2.475-2.475l-5.19-5.19a1.75 1.75 0 0 0 -2.475 2.475z"/><path d="m45.667 96.411h-.5a1.75 1.75 0 0 0 0 3.5h.5a1.75 1.75 0 0 0 0-3.5z"/><path d="m95.755 88.3a16.187 16.187 0 0 0 -2.985-9.032 19.823 19.823 0 0 0 -19.706-18.85c-.383 0-.772.014-1.181.042a24.361 24.361 0 0 0 -5.583-9.765 15.467 15.467 0 0 1 7.873-7.6 1.75 1.75 0 1 0 -1.372-3.22 18.99 18.99 0 0 0 -9.173 8.367 24.225 24.225 0 0 0 -2.207-1.567 21.54 21.54 0 1 1 34.252 25.538 1.75 1.75 0 0 0 2.516 2.434 25.041 25.041 0 1 0 -39.872-29.6 24.5 24.5 0 0 0 -34.328 22.4q0 .185 0 .373a16.054 16.054 0 0 0 .563 32.1h14.9a1.75 1.75 0 1 0 0-3.5h-14.9a12.554 12.554 0 1 1 0-25.107c.383 0 .761.025 1.135.059a1.75 1.75 0 0 0 1.9-1.909c-.065-.686-.1-1.363-.1-2.013a20.976 20.976 0 0 1 30.7-18.564 1.733 1.733 0 0 0 .149.089c.031.015.064.021.1.033a20.767 20.767 0 0 1 4.339 3.114 1.743 1.743 0 0 0 .381.382 20.9 20.9 0 0 1 5.71 10.256 1.75 1.75 0 0 0 1.946 1.343 16.067 16.067 0 0 1 17.678 11 16.268 16.268 0 0 0 -21.185 2.729 1.75 1.75 0 0 0 2.614 2.326 12.786 12.786 0 0 1 22.339 8.5c0 .416-.022.825-.06 1.23a1.75 1.75 0 0 0 1.9 1.908c.221-.02.444-.035.67-.035a7.408 7.408 0 1 1 0 14.817h-31.061a9.773 9.773 0 1 1 1.355-19.439 1.75 1.75 0 0 0 .479-3.467 13.267 13.267 0 1 0 -1.835 26.406h31.062a10.909 10.909 0 0 0 .987-21.778z"/></g></svg>